# xmcd
#
# Track frame offsets:
# 150
# 19781
# 38007
# 58978
# 72542
# 87313
# 102553
# 119358
# 137991
# 151556
# 165706
#
# Disc length: 2478 seconds
#
#
# Revision: 2
# Processed by: cddbd v1.5.2PL0 Copyright (c) Steve Scherf et al.
# Submitted via: FreeRIP 2.943 
#
DISCID=9609ac0b
DTITLE=Murray, Pete - Feeler - Feeler
DYEAR=2004
DGENRE=Blues
TTITLE0=Feeler
TTITLE1=Bail me out
TTITLE2=So beautiful
TTITLE3=Lines
TTITLE4=Freedom
TTITLE5=Please
TTITLE6=Fall your way
TTITLE7=My time
TTITLE8=Tonic
TTITLE9=No more
TTITLE10=Ten ft tall
EXTD=Produced by Paul McKercher and Pete Murray\nmalaysain
EXTT0=
EXTT1=
EXTT2=
EXTT3=
EXTT4=
EXTT5=
EXTT6=
EXTT7=
EXTT8=
EXTT9=
EXTT10=
PLAYORDER=
